<?xml version="1.0" encoding="utf-8"?>
<!-- Generator: Adobe Illustrator 16.0.0, SVG Export Plug-In . SVG Version: 6.00 Build 0)  -->
<!DOCTYPE svg PUBLIC "-//W3C//DTD SVG 1.1//EN" "http://www.w3.org/Graphics/SVG/1.1/DTD/svg11.dtd">
<svg version="1.1" id="Layer_1" xmlns="http://www.w3.org/2000/svg" xmlns:xlink="http://www.w3.org/1999/xlink" x="0px" y="0px"
	 width="960px" height="389.911px" viewBox="0 0 960 389.911" enable-background="new 0 0 960 389.911" xml:space="preserve">
<g>
	<path fill="#EDEDE4" d="M0,0h150.958c89.153,0,145.489,50.866,145.489,127.988v1.094c0,85.87-68.917,130.72-153.146,130.72H67.275
		v123.063H0V0z M145.489,199.091c50.866,0,82.59-28.442,82.59-68.369v-1.094c0-44.849-32.271-68.369-82.59-68.369H67.275v137.832
		H145.489z"/>
	<path fill="#EDEDE4" d="M341.836,330.906l41.569-48.68c30.628,28.44,62.899,45.944,98.451,45.944
		c45.943,0,76.025-26.254,76.025-66.181v-1.094c0-38.833-32.817-63.447-79.307-63.447c-27.349,0-50.867,7.657-70.557,16.957
		l-40.475-26.801L378.482,0h228.625v59.619H436.458l-6.016,89.7c18.049-6.564,35.005-10.939,60.711-10.939
		c74.385,0,132.908,39.38,132.908,120.329v1.094c0,78.213-56.882,129.628-141.66,129.628
		C423.878,389.43,377.935,365.911,341.836,330.906z"/>
	<path fill="#EDEDE4" d="M677.112,322.153l47.037-43.756c27.348,32.27,57.979,50.32,100.641,50.32
		c37.738,0,66.181-22.973,66.181-57.978v-1.093c0-37.74-34.458-59.07-88.06-59.07h-31.176l-10.939-42.115L864.17,58.523H698.443V0
		h253.237v50.321l-106.654,109.39c57.978,7.657,112.672,36.645,112.672,107.748c0,0,0,0.546,0,1.095
		c0,70.557-54.694,120.876-134.004,120.876C756.967,389.43,709.383,361.536,677.112,322.153z"/>
</g>
</svg>
